<svg width="160" height="160" viewBox="0 0 160 160" xmlns="http://www.w3.org/2000/svg">
  <title>Horizonte Emirates — Favicon</title>
  <defs>
    <style>
      .bg{fill:#303257;}
      .symbol{fill:#E6E68C;}
    </style>
  </defs>
  <rect width="160" height="160" class="bg" rx="24"/>
  <g transform="translate(18,24)">
    <polygon class="symbol" points="0,98 12,98 12,70 18,70 18,98 30,98 30,20 18,20 18,54 12,54 12,20 0,20"/>
    <polygon class="symbol" points="34,98 46,98 46,74 52,74 52,98 64,98 64,28 52,28 52,62 46,62 46,28 34,28"/>
    <polygon class="symbol" points="68,98 80,98 80,20 104,20 104,98 116,98 116,52 104,52 104,86 80,86 80,52 68,52"/>
    <polygon class="symbol" points="102,98 114,98 114,70 120,70 120,98 132,98 132,38 120,38 120,74 114,74 114,38 102,38"/>
    <polygon class="symbol" points="136,98 148,98 148,58 154,58 154,98 166,98 166,44 154,44 154,80 148,80 148,44 136,44"/>
  </g>
</svg>
