<svg width="260" height="260" viewBox="0 0 260 260" xmlns="http://www.w3.org/2000/svg">
  <title>Horizonte Emirates — Símbolo sobre fondo oscuro</title>
  <defs>
    <style>
      .bg{fill:#303257;}
      .symbol{fill:#E6E68C;}
    </style>
  </defs>
  <rect width="260" height="260" class="bg"/>
  <g transform="translate(32,24)">
    <polygon class="symbol" points="0,158 14,158 14,110 22,110 22,158 36,158 36,26 22,26 22,86 14,86 14,26 0,26"/>
    <polygon class="symbol" points="64,158 78,158 78,108 86,108 86,158 100,158 100,46 86,46 86,98 78,98 78,46 64,46"/>
    <polygon class="symbol" points="128,158 142,158 142,18 168,18 168,158 182,158 182,64 168,64 168,128 142,128 142,64 128,64"/>
    <polygon class="symbol" points="192,158 206,158 206,124 214,124 214,158 228,158 228,84 214,84 214,132 206,132 206,84 192,84"/>
  </g>
</svg>
