<svg width="420" height="420" viewBox="0 0 420 420" xmlns="http://www.w3.org/2000/svg">
  <title>Horizonte Emirates — Logo apilado</title>
  <defs>
    <style>
      .text-primary{fill:#303257;font-family:'Inter',sans-serif;font-weight:700;letter-spacing:0.12em;font-size:60px;}
      .text-secondary{fill:#303257;font-family:'Inter',sans-serif;font-weight:400;letter-spacing:0.36em;font-size:28px;}
      .symbol{fill:#E6E68C;}
    </style>
  </defs>
  <rect width="420" height="420" fill="none"/>
  <g transform="translate(82,40)">
    <polygon class="symbol" points="0,206 14,206 14,146 22,146 22,206 36,206 36,18 22,18 22,76 14,76 14,18 0,18"/>
    <polygon class="symbol" points="58,206 72,206 72,156 80,156 80,206 94,206 94,46 80,46 80,108 72,108 72,46 58,46"/>
    <polygon class="symbol" points="116,206 130,206 130,28 156,28 156,206 170,206 170,72 156,72 156,144 130,144 130,72 116,72"/>
    <polygon class="symbol" points="178,206 192,206 192,166 200,166 200,206 214,206 214,94 200,94 200,156 192,156 192,94 178,94"/>
    <polygon class="symbol" points="236,206 250,206 250,118 258,118 258,206 272,206 272,64 258,64 258,136 250,136 250,64 236,64"/>
  </g>
  <text class="text-primary" x="0" y="350">HORIZONTE</text>
  <text class="text-secondary" x="0" y="390">EMIRATES</text>
</svg>
